{
	"accessors": [
		{
			"bufferView": 0,
			"byteOffset": 0,
			"componentType": 5126,
			"count": 5564,
			"max": [
				1.8268638849258423,
				0.10399998724460602,
				-1.3617669343948364
			],
			"min": [
				-2.127692461013794,
				-0.10399998724460602,
				-2.058772087097168
			],
			"type": "VEC3"
		},
		{
			"bufferView": 1,
			"byteOffset": 0,
			"componentType": 5126,
			"count": 5564,
			"type": "VEC3"
		},
		{
			"bufferView": 2,
			"byteOffset": 0,
			"componentType": 5126,
			"count": 5564,
			"type": "VEC2"
		},
		{
			"bufferView": 3,
			"byteOffset": 0,
			"componentType": 5123,
			"count": 18528,
			"type": "SCALAR"
		}
	],
	"asset": {
		"extras": {
			"created": "Wed Nov 16 14:53:59 2022"
		},
		"generator": "Gestaltor 2022.4.0 Pappardelle Community",
		"version": "2.0"
	},
	"bufferViews": [
		{
			"buffer": 0,
			"byteLength": 66768,
			"byteOffset": 0,
			"target": 34962
		},
		{
			"buffer": 0,
			"byteLength": 66768,
			"byteOffset": 66768,
			"target": 34962
		},
		{
			"buffer": 0,
			"byteLength": 44512,
			"byteOffset": 133536,
			"target": 34962
		},
		{
			"buffer": 0,
			"byteLength": 37056,
			"byteOffset": 178048,
			"target": 34963
		}
	],
	"buffers": [
		{
			"byteLength": 215104,
			"uri": "data:application/octet-stream;base64,"
		}
	],
	"extensionsUsed": [
		"KHR_materials_unlit"
	],
	"materials": [
		{
			"alphaMode": "OPAQUE",
			"doubleSided": true,
			"extensions": {
				"KHR_materials_unlit": {}
			},
			"name": "main"
		}
	],
	"meshes": [
		{
			"name": "Text",
			"primitives": [
				{
					"attributes": {
						"NORMAL": 1,
						"POSITION": 0,
						"TEXCOORD_0": 2
					},
					"indices": 3,
					"material": 0,
					"mode": 4
				}
			]
		}
	],
	"nodes": [
		{
			"mesh": 0,
			"name": "Text",
			"rotation": [
				0.7071068286895752,
				0.0,
				0.0,
				0.7071068286895752
			]
		}
	],
	"scene": 0,
	"scenes": [
		{
			"name": "Scene",
			"nodes": [
				0
			]
		}
	]
}