{
    "asset" : {
        "generator" : "Khronos glTF Blender I/O v3.3.27",
        "version" : "2.0"
    },
    "scene" : 0,
    "scenes" : [
        {
            "name" : "Scene",
            "nodes" : [
                0
            ]
        }
    ],
    "nodes" : [
        {
            "mesh" : 0,
            "name" : "Cylinder",
            "scale" : [
                0.7016032338142395,
                0.7016032338142395,
                0.7016032338142395
            ],
            "translation" : [
                0,
                2.2783782482147217,
                0
            ]
        }
    ],
    "materials" : [
        {
            "doubleSided" : true,
            "name" : "Material.001",
            "pbrMetallicRoughness" : {
                "baseColorTexture" : {
                    "index" : 0
                },
                "metallicFactor" : 0,
                "roughnessFactor" : 0.5
            }
        },
        {
            "doubleSided" : true,
            "name" : "Material",
            "pbrMetallicRoughness" : {
                "baseColorTexture" : {
                    "index" : 1
                },
                "metallicFactor" : 0,
                "roughnessFactor" : 0.5
            }
        }
    ],
    "meshes" : [
        {
            "name" : "Cylinder.009",
            "primitives" : [
                {
                    "attributes" : {
                        "POSITION" : 0,
                        "NORMAL" : 1,
                        "TEXCOORD_0" : 2
                    },
                    "indices" : 3,
                    "material" : 0
                },
                {
                    "attributes" : {
                        "POSITION" : 4,
                        "NORMAL" : 5,
                        "TEXCOORD_0" : 6
                    },
                    "indices" : 7,
                    "material" : 1
                }
            ]
        }
    ],
    "textures" : [
        {
            "sampler" : 0,
            "source" : 0
        },
        {
            "sampler" : 0,
            "source" : 1
        }
    ],
    "images" : [
        {
            "bufferView" : 4,
            "mimeType" : "image/png",
            "name" : "COLORPALAT"
        },
        {
            "bufferView" : 9,
            "mimeType" : "image/png",
            "name" : "Group 5"
        }
    ],
    "accessors" : [
        {
            "bufferView" : 0,
            "componentType" : 5126,
            "count" : 43276,
            "max" : [
                8.611300468444824,
                7.553684711456299,
                8.611300468444824
            ],
            "min" : [
                -8.611300468444824,
                -1.9420702457427979,
                -8.611300468444824
            ],
            "type" : "VEC3"
        },
        {
            "bufferView" : 1,
            "componentType" : 5126,
            "count" : 43276,
            "type" : "VEC3"
        },
        {
            "bufferView" : 2,
            "componentType" : 5126,
            "count" : 43276,
            "type" : "VEC2"
        },
        {
            "bufferView" : 3,
            "componentType" : 5123,
            "count" : 98100,
            "type" : "SCALAR"
        },
        {
            "bufferView" : 5,
            "componentType" : 5126,
            "count" : 5268,
            "max" : [
                5.768017292022705,
                1.6201982498168945,
                4.9276041984558105
            ],
            "min" : [
                -5.0818705558776855,
                -1.279407024383545,
                -5.7113447189331055
            ],
            "type" : "VEC3"
        },
        {
            "bufferView" : 6,
            "componentType" : 5126,
            "count" : 5268,
            "type" : "VEC3"
        },
        {
            "bufferView" : 7,
            "componentType" : 5126,
            "count" : 5268,
            "type" : "VEC2"
        },
        {
            "bufferView" : 8,
            "componentType" : 5123,
            "count" : 7902,
            "type" : "SCALAR"
        }
    ],
    "bufferViews" : [
        {
            "buffer" : 0,
            "byteLength" : 519312,
            "byteOffset" : 0,
            "target" : 34962
        },
        {
            "buffer" : 0,
            "byteLength" : 519312,
            "byteOffset" : 519312,
            "target" : 34962
        },
        {
            "buffer" : 0,
            "byteLength" : 346208,
            "byteOffset" : 1038624,
            "target" : 34962
        },
        {
            "buffer" : 0,
            "byteLength" : 196200,
            "byteOffset" : 1384832,
            "target" : 34963
        },
        {
            "buffer" : 0,
            "byteLength" : 9176,
            "byteOffset" : 1581032
        },
        {
            "buffer" : 0,
            "byteLength" : 63216,
            "byteOffset" : 1590208,
            "target" : 34962
        },
        {
            "buffer" : 0,
            "byteLength" : 63216,
            "byteOffset" : 1653424,
            "target" : 34962
        },
        {
            "buffer" : 0,
            "byteLength" : 42144,
            "byteOffset" : 1716640,
            "target" : 34962
        },
        {
            "buffer" : 0,
            "byteLength" : 15804,
            "byteOffset" : 1758784,
            "target" : 34963
        },
        {
            "buffer" : 0,
            "byteLength" : 19204,
            "byteOffset" : 1774588
        }
    ],
    "samplers" : [
        {
            "magFilter" : 9729,
            "minFilter" : 9987
        }
    ],
    "buffers" : [
        {
            "byteLength" : 1793792,
            "uri" : "data:application/octet-stream;base64,"
        }
    ]
}
